# xmcd
#
# Track frame offsets:
#     150
#     6518
#     83528
#     135165
#     181745
#
# Disc length: 2510 seconds
#
# Revision: 0
# Processed by: cddbd v1.5.2PL0 Copyright (c) Steve Scherf et al.
# Submitted via: gnudb v1.0.1
#
DISCID=2c09cc05
DTITLE=Pink Floyd / Animals
DYEAR=1998
DGENRE=art rock
TTITLE0=Pigs on the Wing, Part 1
TTITLE1=Dogs
TTITLE2=Pigs (Three Different Ones)
TTITLE3=Sheep
TTITLE4=Pigs on the Wing, Part 2
EXTD=
EXTT0=
EXTT1=
EXTT2=
EXTT3=
EXTT4=
PLAYORDER=
.
